<svg width="147" height="30" viewBox="0 0 147 30" fill="none" xmlns="http://www.w3.org/2000/svg">
<path d="M1.84 29C1.54667 29 1.30667 28.9067 1.12 28.72C0.933333 28.5333 0.84 28.2933 0.84 28V2.00001C0.84 1.70667 0.933333 1.46667 1.12 1.28001C1.30667 1.09334 1.54667 1.00001 1.84 1.00001L31.9999 0.999975C34.2932 0.999975 36.1732 1.31998 37.6399 1.95997C39.1065 2.59998 40.1865 3.51998 40.8799 4.71997C41.5999 5.89331 41.9599 7.29331 41.9599 8.91998C41.9599 9.87998 41.7732 10.7333 41.3999 11.48C41.0532 12.2 40.6132 12.8 40.0799 13.28C39.5732 13.76 39.0932 14.1066 38.6399 14.32C39.6532 14.8 40.5465 15.5866 41.3199 16.68C42.1199 17.7733 42.5199 19.0533 42.5199 20.52C42.5199 22.28 42.1199 23.8 41.3199 25.08C40.5465 26.3333 39.3999 27.3066 37.8799 28C36.3865 28.6666 34.5465 29 32.3599 29L1.84 29ZM8 23.8L31.5599 23.8C32.7065 23.8 33.5732 23.4666 34.1599 22.8C34.7465 22.1333 35.0399 21.3733 35.0399 20.52C35.0399 19.5866 34.7332 18.8 34.1199 18.16C33.5332 17.52 32.6799 17.2 31.5599 17.2L8 17.2V23.8ZM8 12.12L31.1999 12.12C32.2932 12.12 33.1065 11.84 33.6399 11.28C34.1999 10.72 34.4799 9.99998 34.4799 9.11998C34.4799 8.26664 34.1999 7.57331 33.6399 7.03998C33.1065 6.47998 32.2932 6.19998 31.1999 6.19998L8 6.20001V12.12Z" fill="white"/>
<path d="M44.5074 29C44.2674 29 44.054 28.92 43.8674 28.76C43.7074 28.5733 43.6274 28.3733 43.6274 28.16C43.6274 28.08 43.6407 28 43.6674 27.92C43.694 27.84 43.734 27.76 43.7874 27.68L52.5074 14.72L44.4274 2.31997C44.3474 2.15998 44.3074 1.99998 44.3074 1.83998C44.3074 1.62664 44.3874 1.43998 44.5474 1.27998C44.7074 1.09331 44.9074 0.999975 45.1474 0.999975H50.9474C51.3474 0.999975 51.654 1.10664 51.8674 1.31998C52.0807 1.50664 52.2274 1.67998 52.3074 1.83998L57.1074 9.11998L61.9474 1.83998C62.0541 1.67998 62.2141 1.50664 62.4274 1.31998C62.6408 1.10664 62.9474 0.999975 63.3474 0.999975H68.8275C69.0675 0.999975 69.2675 1.09331 69.4275 1.27998C69.6141 1.43998 69.7075 1.62664 69.7075 1.83998C69.7075 2.02664 69.6541 2.18664 69.5475 2.31997L61.4274 14.68L70.2275 27.68C70.2808 27.76 70.3075 27.84 70.3075 27.92C70.3341 28 70.3475 28.08 70.3475 28.16C70.3475 28.3733 70.2675 28.5733 70.1075 28.76C69.9475 28.92 69.7475 29 69.5075 29H63.5474C63.1474 29 62.8274 28.9066 62.5874 28.72C62.3741 28.5066 62.2274 28.3333 62.1474 28.2L56.8274 20.52L51.6274 28.2C51.5474 28.3333 51.4007 28.5066 51.1874 28.72C50.974 28.9066 50.6674 29 50.2674 29H44.5074Z" fill="white"/>
<path d="M83.2244 29.4C80.5578 29.4 78.3444 29.0266 76.5844 28.28C74.8244 27.5066 73.491 26.5066 72.5844 25.28C71.6777 24.0533 71.1977 22.7466 71.1444 21.36C71.1444 21.1466 71.2244 20.96 71.3844 20.8C71.571 20.6133 71.7844 20.52 72.0244 20.52H77.0644C77.4377 20.52 77.7177 20.5866 77.9044 20.72C78.1177 20.8533 78.3044 21.0266 78.4644 21.24C78.6777 21.64 78.9711 22.0266 79.3444 22.4C79.7444 22.7733 80.2511 23.08 80.8644 23.32C81.5044 23.5333 82.2911 23.64 83.2244 23.64C84.7711 23.64 85.9311 23.4 86.7044 22.92C87.5044 22.44 87.9044 21.7866 87.9044 20.96C87.9044 20.3733 87.6911 19.8933 87.2644 19.52C86.8378 19.12 86.1444 18.7733 85.1844 18.48C84.2511 18.16 82.9978 17.84 81.4244 17.52C79.3978 17.0933 77.6644 16.5466 76.2244 15.88C74.811 15.1866 73.731 14.2933 72.9844 13.2C72.2377 12.08 71.8644 10.6933 71.8644 9.03998C71.8644 7.41331 72.3177 5.95998 73.2244 4.67998C74.1577 3.39998 75.4511 2.39998 77.1044 1.67998C78.7577 0.959976 80.7178 0.599976 82.9844 0.599976C84.8244 0.599976 86.4378 0.839976 87.8244 1.31998C89.2378 1.79998 90.4244 2.43998 91.3844 3.23997C92.3444 4.03998 93.0644 4.89331 93.5444 5.79998C94.0511 6.67998 94.3178 7.54664 94.3444 8.39997C94.3444 8.61331 94.2644 8.81331 94.1044 8.99998C93.9444 9.15998 93.7444 9.23998 93.5044 9.23998H88.2244C87.9311 9.23998 87.6778 9.18664 87.4644 9.07998C87.2511 8.97331 87.0644 8.79998 86.9044 8.55998C86.7444 7.97331 86.3178 7.46664 85.6244 7.03998C84.9578 6.58664 84.0778 6.35998 82.9844 6.35998C81.8111 6.35998 80.8911 6.57331 80.2244 6.99998C79.5844 7.39998 79.2644 8.02664 79.2644 8.87998C79.2644 9.41331 79.4377 9.87998 79.7844 10.28C80.1577 10.68 80.7578 11.0266 81.5844 11.32C82.4378 11.6133 83.5978 11.92 85.0644 12.24C87.4911 12.6933 89.4511 13.2666 90.9444 13.96C92.4378 14.6266 93.5311 15.5066 94.2244 16.6C94.9178 17.6666 95.2644 19.0133 95.2644 20.64C95.2644 22.4533 94.7444 24.0266 93.7044 25.36C92.6911 26.6666 91.2778 27.6666 89.4644 28.36C87.6511 29.0533 85.5711 29.4 83.2244 29.4Z" fill="white"/>
<path d="M106.336 29C106.069 29 105.829 28.9066 105.616 28.72C105.429 28.5333 105.336 28.2933 105.336 28V19.4L96.056 2.27998C96.0293 2.19998 96.0026 2.13331 95.976 2.07998C95.9493 1.99998 95.936 1.91998 95.936 1.83998C95.936 1.62664 96.016 1.43998 96.176 1.27998C96.3627 1.09331 96.576 0.999975 96.816 0.999975H101.816C102.216 0.999975 102.523 1.10664 102.736 1.31998C102.976 1.50664 103.123 1.67998 103.176 1.83998L108.936 12.16L114.696 1.83998C114.776 1.67998 114.923 1.50664 115.136 1.31998C115.376 1.10664 115.696 0.999975 116.096 0.999975H121.096C121.336 0.999975 121.536 1.09331 121.696 1.27998C121.856 1.43998 121.936 1.62664 121.936 1.83998C121.936 1.91998 121.923 1.99998 121.896 2.07998C121.896 2.13331 121.883 2.19998 121.856 2.27998L112.536 19.4V28C112.536 28.2933 112.443 28.5333 112.256 28.72C112.069 28.9066 111.829 29 111.536 29H106.336Z" fill="white"/>
<path d="M134.826 29.4C132.159 29.4 129.946 29.0266 128.186 28.28C126.426 27.5066 125.093 26.5066 124.186 25.28C123.279 24.0533 122.799 22.7466 122.746 21.36C122.746 21.1466 122.826 20.96 122.986 20.8C123.173 20.6133 123.386 20.52 123.626 20.52H128.666C129.039 20.52 129.319 20.5866 129.506 20.72C129.719 20.8533 129.906 21.0266 130.066 21.24C130.279 21.64 130.573 22.0266 130.946 22.4C131.346 22.7733 131.853 23.08 132.466 23.32C133.106 23.5333 133.893 23.64 134.826 23.64C136.373 23.64 137.533 23.4 138.306 22.92C139.106 22.44 139.506 21.7866 139.506 20.96C139.506 20.3733 139.293 19.8933 138.866 19.52C138.439 19.12 137.746 18.7733 136.786 18.48C135.853 18.16 134.599 17.84 133.026 17.52C130.999 17.0933 129.266 16.5466 127.826 15.88C126.413 15.1866 125.333 14.2933 124.586 13.2C123.839 12.08 123.466 10.6933 123.466 9.03998C123.466 7.41331 123.919 5.95998 124.826 4.67998C125.759 3.39998 127.053 2.39998 128.706 1.67998C130.359 0.959976 132.319 0.599976 134.586 0.599976C136.426 0.599976 138.039 0.839976 139.426 1.31998C140.839 1.79998 142.026 2.43998 142.986 3.23997C143.946 4.03998 144.666 4.89331 145.146 5.79998C145.653 6.67998 145.919 7.54664 145.946 8.39997C145.946 8.61331 145.866 8.81331 145.706 8.99998C145.546 9.15998 145.346 9.23998 145.106 9.23998H139.826C139.533 9.23998 139.279 9.18664 139.066 9.07998C138.853 8.97331 138.666 8.79998 138.506 8.55998C138.346 7.97331 137.919 7.46664 137.226 7.03998C136.559 6.58664 135.679 6.35998 134.586 6.35998C133.413 6.35998 132.493 6.57331 131.826 6.99998C131.186 7.39998 130.866 8.02664 130.866 8.87998C130.866 9.41331 131.039 9.87998 131.386 10.28C131.759 10.68 132.359 11.0266 133.186 11.32C134.039 11.6133 135.199 11.92 136.666 12.24C139.093 12.6933 141.053 13.2666 142.546 13.96C144.039 14.6266 145.133 15.5066 145.826 16.6C146.519 17.6666 146.866 19.0133 146.866 20.64C146.866 22.4533 146.346 24.0266 145.306 25.36C144.293 26.6666 142.879 27.6666 141.066 28.36C139.253 29.0533 137.173 29.4 134.826 29.4Z" fill="white"/>
</svg>
