<svg width="181" height="62" viewBox="0 0 181 62" fill="none" xmlns="http://www.w3.org/2000/svg">
<rect x="8" y="7" width="166" height="48" rx="8" fill="#0036BF"/>
<path d="M19.84 45.4C19.5467 45.4 19.3067 45.3067 19.12 45.12C18.9333 44.9334 18.84 44.6934 18.84 44.4V18.4C18.84 18.1067 18.9333 17.8667 19.12 17.68C19.3067 17.4934 19.5467 17.4 19.84 17.4L49.9999 17.4C52.2932 17.4 54.1732 17.72 55.6399 18.36C57.1065 19 58.1865 19.92 58.8799 21.12C59.5999 22.2933 59.9599 23.6933 59.9599 25.32C59.9599 26.28 59.7732 27.1333 59.3999 27.88C59.0532 28.6 58.6132 29.2 58.0799 29.68C57.5732 30.16 57.0932 30.5067 56.6399 30.72C57.6532 31.2 58.5465 31.9867 59.3199 33.08C60.1199 34.1733 60.5199 35.4533 60.5199 36.92C60.5199 38.68 60.1199 40.2 59.3199 41.48C58.5465 42.7333 57.3999 43.7067 55.8799 44.4C54.3865 45.0667 52.5465 45.4 50.3599 45.4L19.84 45.4ZM26 40.2L49.5599 40.2C50.7065 40.2 51.5732 39.8667 52.1599 39.2C52.7465 38.5333 53.0399 37.7733 53.0399 36.92C53.0399 35.9867 52.7332 35.2 52.1199 34.56C51.5332 33.92 50.6799 33.6 49.5599 33.6L26 33.6V40.2ZM26 28.52L49.1999 28.52C50.2932 28.52 51.1065 28.24 51.6399 27.68C52.1999 27.12 52.4799 26.4 52.4799 25.52C52.4799 24.6667 52.1999 23.9733 51.6399 23.44C51.1065 22.88 50.2932 22.6 49.1999 22.6L26 22.6V28.52Z" fill="white"/>
<path d="M62.5074 45.4C62.2674 45.4 62.054 45.32 61.8674 45.16C61.7074 44.9733 61.6274 44.7733 61.6274 44.56C61.6274 44.48 61.6407 44.4 61.6674 44.32C61.694 44.24 61.734 44.16 61.7874 44.08L70.5074 31.12L62.4274 18.72C62.3474 18.56 62.3074 18.4 62.3074 18.24C62.3074 18.0267 62.3874 17.84 62.5474 17.68C62.7074 17.4933 62.9074 17.4 63.1474 17.4H68.9474C69.3474 17.4 69.654 17.5067 69.8674 17.72C70.0807 17.9067 70.2274 18.08 70.3074 18.24L75.1074 25.52L79.9474 18.24C80.0541 18.08 80.2141 17.9067 80.4274 17.72C80.6408 17.5067 80.9474 17.4 81.3474 17.4H86.8275C87.0675 17.4 87.2675 17.4933 87.4275 17.68C87.6141 17.84 87.7075 18.0267 87.7075 18.24C87.7075 18.4267 87.6541 18.5867 87.5475 18.72L79.4274 31.08L88.2275 44.08C88.2808 44.16 88.3075 44.24 88.3075 44.32C88.3341 44.4 88.3475 44.48 88.3475 44.56C88.3475 44.7733 88.2675 44.9733 88.1075 45.16C87.9475 45.32 87.7475 45.4 87.5075 45.4H81.5474C81.1474 45.4 80.8274 45.3067 80.5874 45.12C80.3741 44.9067 80.2274 44.7333 80.1474 44.6L74.8274 36.92L69.6274 44.6C69.5474 44.7333 69.4007 44.9067 69.1874 45.12C68.974 45.3067 68.6674 45.4 68.2674 45.4H62.5074Z" fill="white"/>
<path d="M101.224 45.8C98.5578 45.8 96.3444 45.4267 94.5844 44.68C92.8244 43.9067 91.491 42.9067 90.5844 41.68C89.6777 40.4533 89.1977 39.1467 89.1444 37.76C89.1444 37.5467 89.2244 37.36 89.3844 37.2C89.571 37.0133 89.7844 36.92 90.0244 36.92H95.0644C95.4377 36.92 95.7177 36.9867 95.9044 37.12C96.1177 37.2533 96.3044 37.4267 96.4644 37.64C96.6777 38.04 96.9711 38.4267 97.3444 38.8C97.7444 39.1733 98.2511 39.48 98.8644 39.72C99.5044 39.9333 100.291 40.04 101.224 40.04C102.771 40.04 103.931 39.8 104.704 39.32C105.504 38.84 105.904 38.1867 105.904 37.36C105.904 36.7733 105.691 36.2933 105.264 35.92C104.838 35.52 104.144 35.1733 103.184 34.88C102.251 34.56 100.998 34.24 99.4244 33.92C97.3978 33.4933 95.6644 32.9467 94.2244 32.28C92.811 31.5867 91.731 30.6933 90.9844 29.6C90.2377 28.48 89.8644 27.0933 89.8644 25.44C89.8644 23.8133 90.3177 22.36 91.2244 21.08C92.1577 19.8 93.4511 18.8 95.1044 18.08C96.7577 17.36 98.7178 17 100.984 17C102.824 17 104.438 17.24 105.824 17.72C107.238 18.2 108.424 18.84 109.384 19.64C110.344 20.44 111.064 21.2933 111.544 22.2C112.051 23.08 112.318 23.9467 112.344 24.8C112.344 25.0133 112.264 25.2133 112.104 25.4C111.944 25.56 111.744 25.64 111.504 25.64H106.224C105.931 25.64 105.678 25.5867 105.464 25.48C105.251 25.3733 105.064 25.2 104.904 24.96C104.744 24.3733 104.318 23.8667 103.624 23.44C102.958 22.9867 102.078 22.76 100.984 22.76C99.8111 22.76 98.8911 22.9733 98.2244 23.4C97.5844 23.8 97.2644 24.4267 97.2644 25.28C97.2644 25.8133 97.4377 26.28 97.7844 26.68C98.1577 27.08 98.7578 27.4267 99.5844 27.72C100.438 28.0133 101.598 28.32 103.064 28.64C105.491 29.0933 107.451 29.6667 108.944 30.36C110.438 31.0267 111.531 31.9067 112.224 33C112.918 34.0667 113.264 35.4133 113.264 37.04C113.264 38.8533 112.744 40.4267 111.704 41.76C110.691 43.0667 109.278 44.0667 107.464 44.76C105.651 45.4533 103.571 45.8 101.224 45.8Z" fill="white"/>
<path d="M124.336 45.4C124.069 45.4 123.829 45.3067 123.616 45.12C123.429 44.9333 123.336 44.6933 123.336 44.4V35.8L114.056 18.68C114.029 18.6 114.003 18.5333 113.976 18.48C113.949 18.4 113.936 18.32 113.936 18.24C113.936 18.0267 114.016 17.84 114.176 17.68C114.363 17.4933 114.576 17.4 114.816 17.4H119.816C120.216 17.4 120.523 17.5067 120.736 17.72C120.976 17.9067 121.123 18.08 121.176 18.24L126.936 28.56L132.696 18.24C132.776 18.08 132.923 17.9067 133.136 17.72C133.376 17.5067 133.696 17.4 134.096 17.4H139.096C139.336 17.4 139.536 17.4933 139.696 17.68C139.856 17.84 139.936 18.0267 139.936 18.24C139.936 18.32 139.923 18.4 139.896 18.48C139.896 18.5333 139.883 18.6 139.856 18.68L130.536 35.8V44.4C130.536 44.6933 130.443 44.9333 130.256 45.12C130.069 45.3067 129.829 45.4 129.536 45.4H124.336Z" fill="white"/>
<path d="M152.826 45.8C150.159 45.8 147.946 45.4267 146.186 44.68C144.426 43.9067 143.093 42.9067 142.186 41.68C141.279 40.4533 140.799 39.1467 140.746 37.76C140.746 37.5467 140.826 37.36 140.986 37.2C141.173 37.0133 141.386 36.92 141.626 36.92H146.666C147.039 36.92 147.319 36.9867 147.506 37.12C147.719 37.2533 147.906 37.4267 148.066 37.64C148.279 38.04 148.573 38.4267 148.946 38.8C149.346 39.1733 149.853 39.48 150.466 39.72C151.106 39.9333 151.893 40.04 152.826 40.04C154.373 40.04 155.533 39.8 156.306 39.32C157.106 38.84 157.506 38.1867 157.506 37.36C157.506 36.7733 157.293 36.2933 156.866 35.92C156.439 35.52 155.746 35.1733 154.786 34.88C153.853 34.56 152.599 34.24 151.026 33.92C148.999 33.4933 147.266 32.9467 145.826 32.28C144.413 31.5867 143.333 30.6933 142.586 29.6C141.839 28.48 141.466 27.0933 141.466 25.44C141.466 23.8133 141.919 22.36 142.826 21.08C143.759 19.8 145.053 18.8 146.706 18.08C148.359 17.36 150.319 17 152.586 17C154.426 17 156.039 17.24 157.426 17.72C158.839 18.2 160.026 18.84 160.986 19.64C161.946 20.44 162.666 21.2933 163.146 22.2C163.653 23.08 163.919 23.9467 163.946 24.8C163.946 25.0133 163.866 25.2133 163.706 25.4C163.546 25.56 163.346 25.64 163.106 25.64H157.826C157.533 25.64 157.279 25.5867 157.066 25.48C156.853 25.3733 156.666 25.2 156.506 24.96C156.346 24.3733 155.919 23.8667 155.226 23.44C154.559 22.9867 153.679 22.76 152.586 22.76C151.413 22.76 150.493 22.9733 149.826 23.4C149.186 23.8 148.866 24.4267 148.866 25.28C148.866 25.8133 149.039 26.28 149.386 26.68C149.759 27.08 150.359 27.4267 151.186 27.72C152.039 28.0133 153.199 28.32 154.666 28.64C157.093 29.0933 159.053 29.6667 160.546 30.36C162.039 31.0267 163.133 31.9067 163.826 33C164.519 34.0667 164.866 35.4133 164.866 37.04C164.866 38.8533 164.346 40.4267 163.306 41.76C162.293 43.0667 160.879 44.0667 159.066 44.76C157.253 45.4533 155.173 45.8 152.826 45.8Z" fill="white"/>
</svg>
