<svg width="217" height="109" viewBox="0 0 217 109" fill="none" xmlns="http://www.w3.org/2000/svg">
<rect x="25" y="31" width="166" height="48" rx="8" fill="#0036BF"/>
<path d="M36.84 69C36.5467 69 36.3067 68.9067 36.12 68.72C35.9333 68.5333 35.84 68.2933 35.84 68V42C35.84 41.7067 35.9333 41.4667 36.12 41.28C36.3067 41.0933 36.5467 41 36.84 41L66.9999 41C69.2932 41 71.1732 41.32 72.6399 41.96C74.1065 42.6 75.1865 43.52 75.8799 44.72C76.5999 45.8933 76.9599 47.2933 76.9599 48.92C76.9599 49.88 76.7732 50.7333 76.3999 51.48C76.0532 52.2 75.6132 52.8 75.0799 53.28C74.5732 53.76 74.0932 54.1066 73.6399 54.32C74.6532 54.8 75.5465 55.5866 76.3199 56.68C77.1199 57.7733 77.5199 59.0533 77.5199 60.52C77.5199 62.28 77.1199 63.8 76.3199 65.08C75.5465 66.3333 74.3999 67.3066 72.8799 68C71.3865 68.6666 69.5465 69 67.3599 69L36.84 69ZM43 63.8L66.5599 63.8C67.7065 63.8 68.5732 63.4666 69.1599 62.8C69.7465 62.1333 70.0399 61.3733 70.0399 60.52C70.0399 59.5866 69.7332 58.8 69.1199 58.16C68.5332 57.52 67.6799 57.2 66.5599 57.2L43 57.2V63.8ZM43 52.12L66.1999 52.12C67.2932 52.12 68.1065 51.84 68.6399 51.28C69.1999 50.72 69.4799 50 69.4799 49.12C69.4799 48.2666 69.1999 47.5733 68.6399 47.04C68.1065 46.48 67.2932 46.2 66.1999 46.2L43 46.2V52.12Z" fill="white"/>
<path d="M79.5074 69C79.2674 69 79.054 68.92 78.8674 68.76C78.7074 68.5733 78.6274 68.3733 78.6274 68.16C78.6274 68.08 78.6407 68 78.6674 67.92C78.694 67.84 78.734 67.76 78.7874 67.68L87.5074 54.72L79.4274 42.32C79.3474 42.16 79.3074 42 79.3074 41.84C79.3074 41.6266 79.3874 41.44 79.5474 41.28C79.7074 41.0933 79.9074 41 80.1474 41H85.9474C86.3474 41 86.654 41.1066 86.8674 41.32C87.0807 41.5066 87.2274 41.68 87.3074 41.84L92.1074 49.12L96.9474 41.84C97.0541 41.68 97.2141 41.5066 97.4274 41.32C97.6408 41.1066 97.9474 41 98.3474 41H103.827C104.067 41 104.267 41.0933 104.427 41.28C104.614 41.44 104.707 41.6266 104.707 41.84C104.707 42.0266 104.654 42.1866 104.547 42.32L96.4274 54.68L105.227 67.68C105.281 67.76 105.307 67.84 105.307 67.92C105.334 68 105.347 68.08 105.347 68.16C105.347 68.3733 105.267 68.5733 105.107 68.76C104.947 68.92 104.747 69 104.507 69H98.5474C98.1474 69 97.8274 68.9066 97.5874 68.72C97.3741 68.5066 97.2274 68.3333 97.1474 68.2L91.8274 60.52L86.6274 68.2C86.5474 68.3333 86.4007 68.5066 86.1874 68.72C85.974 68.9066 85.6674 69 85.2674 69H79.5074Z" fill="white"/>
<path d="M118.224 69.4C115.558 69.4 113.344 69.0266 111.584 68.28C109.824 67.5066 108.491 66.5066 107.584 65.28C106.678 64.0533 106.198 62.7466 106.144 61.36C106.144 61.1466 106.224 60.96 106.384 60.8C106.571 60.6133 106.784 60.52 107.024 60.52H112.064C112.438 60.52 112.718 60.5866 112.904 60.72C113.118 60.8533 113.304 61.0266 113.464 61.24C113.678 61.64 113.971 62.0266 114.344 62.4C114.744 62.7733 115.251 63.08 115.864 63.32C116.504 63.5333 117.291 63.64 118.224 63.64C119.771 63.64 120.931 63.4 121.704 62.92C122.504 62.44 122.904 61.7866 122.904 60.96C122.904 60.3733 122.691 59.8933 122.264 59.52C121.838 59.12 121.144 58.7733 120.184 58.48C119.251 58.16 117.998 57.84 116.424 57.52C114.398 57.0933 112.664 56.5466 111.224 55.88C109.811 55.1866 108.731 54.2933 107.984 53.2C107.238 52.08 106.864 50.6933 106.864 49.04C106.864 47.4133 107.318 45.96 108.224 44.68C109.158 43.4 110.451 42.4 112.104 41.68C113.758 40.96 115.718 40.6 117.984 40.6C119.824 40.6 121.438 40.84 122.824 41.32C124.238 41.8 125.424 42.44 126.384 43.24C127.344 44.04 128.064 44.8933 128.544 45.8C129.051 46.68 129.318 47.5466 129.344 48.4C129.344 48.6133 129.264 48.8133 129.104 49C128.944 49.16 128.744 49.24 128.504 49.24H123.224C122.931 49.24 122.678 49.1866 122.464 49.08C122.251 48.9733 122.064 48.8 121.904 48.56C121.744 47.9733 121.318 47.4666 120.624 47.04C119.958 46.5866 119.078 46.36 117.984 46.36C116.811 46.36 115.891 46.5733 115.224 47C114.584 47.4 114.264 48.0266 114.264 48.88C114.264 49.4133 114.438 49.88 114.784 50.28C115.158 50.68 115.758 51.0266 116.584 51.32C117.438 51.6133 118.598 51.92 120.064 52.24C122.491 52.6933 124.451 53.2666 125.944 53.96C127.438 54.6266 128.531 55.5066 129.224 56.6C129.918 57.6666 130.264 59.0133 130.264 60.64C130.264 62.4533 129.744 64.0266 128.704 65.36C127.691 66.6666 126.278 67.6666 124.464 68.36C122.651 69.0533 120.571 69.4 118.224 69.4Z" fill="white"/>
<path d="M141.336 69C141.069 69 140.829 68.9066 140.616 68.72C140.429 68.5333 140.336 68.2933 140.336 68V59.4L131.056 42.28C131.029 42.2 131.003 42.1333 130.976 42.08C130.949 42 130.936 41.92 130.936 41.84C130.936 41.6266 131.016 41.44 131.176 41.28C131.363 41.0933 131.576 41 131.816 41H136.816C137.216 41 137.523 41.1066 137.736 41.32C137.976 41.5066 138.123 41.68 138.176 41.84L143.936 52.16L149.696 41.84C149.776 41.68 149.923 41.5066 150.136 41.32C150.376 41.1066 150.696 41 151.096 41H156.096C156.336 41 156.536 41.0933 156.696 41.28C156.856 41.44 156.936 41.6266 156.936 41.84C156.936 41.92 156.923 42 156.896 42.08C156.896 42.1333 156.883 42.2 156.856 42.28L147.536 59.4V68C147.536 68.2933 147.443 68.5333 147.256 68.72C147.069 68.9066 146.829 69 146.536 69H141.336Z" fill="white"/>
<path d="M169.826 69.4C167.159 69.4 164.946 69.0266 163.186 68.28C161.426 67.5066 160.093 66.5066 159.186 65.28C158.279 64.0533 157.799 62.7466 157.746 61.36C157.746 61.1466 157.826 60.96 157.986 60.8C158.173 60.6133 158.386 60.52 158.626 60.52H163.666C164.039 60.52 164.319 60.5866 164.506 60.72C164.719 60.8533 164.906 61.0266 165.066 61.24C165.279 61.64 165.573 62.0266 165.946 62.4C166.346 62.7733 166.853 63.08 167.466 63.32C168.106 63.5333 168.893 63.64 169.826 63.64C171.373 63.64 172.533 63.4 173.306 62.92C174.106 62.44 174.506 61.7866 174.506 60.96C174.506 60.3733 174.293 59.8933 173.866 59.52C173.439 59.12 172.746 58.7733 171.786 58.48C170.853 58.16 169.599 57.84 168.026 57.52C165.999 57.0933 164.266 56.5466 162.826 55.88C161.413 55.1866 160.333 54.2933 159.586 53.2C158.839 52.08 158.466 50.6933 158.466 49.04C158.466 47.4133 158.919 45.96 159.826 44.68C160.759 43.4 162.053 42.4 163.706 41.68C165.359 40.96 167.319 40.6 169.586 40.6C171.426 40.6 173.039 40.84 174.426 41.32C175.839 41.8 177.026 42.44 177.986 43.24C178.946 44.04 179.666 44.8933 180.146 45.8C180.653 46.68 180.919 47.5466 180.946 48.4C180.946 48.6133 180.866 48.8133 180.706 49C180.546 49.16 180.346 49.24 180.106 49.24H174.826C174.533 49.24 174.279 49.1866 174.066 49.08C173.853 48.9733 173.666 48.8 173.506 48.56C173.346 47.9733 172.919 47.4666 172.226 47.04C171.559 46.5866 170.679 46.36 169.586 46.36C168.413 46.36 167.493 46.5733 166.826 47C166.186 47.4 165.866 48.0266 165.866 48.88C165.866 49.4133 166.039 49.88 166.386 50.28C166.759 50.68 167.359 51.0266 168.186 51.32C169.039 51.6133 170.199 51.92 171.666 52.24C174.093 52.6933 176.053 53.2666 177.546 53.96C179.039 54.6266 180.133 55.5066 180.826 56.6C181.519 57.6666 181.866 59.0133 181.866 60.64C181.866 62.4533 181.346 64.0266 180.306 65.36C179.293 66.6666 177.879 67.6666 176.066 68.36C174.253 69.0533 172.173 69.4 169.826 69.4Z" fill="white"/>
</svg>
