<svg width="107" height="18" viewBox="0 0 107 18" fill="none" xmlns="http://www.w3.org/2000/svg">
<path d="M30.7798 17.7551C30.5964 17.7551 30.4464 17.698 30.3297 17.5837C30.213 17.4694 30.1547 17.3224 30.1547 17.1429V1.22449C30.1547 1.0449 30.213 0.897958 30.3297 0.783673C30.4464 0.669387 30.5964 0.612244 30.7798 0.612244H33.9304C34.1138 0.612244 34.2638 0.669387 34.3805 0.783673C34.4972 0.897958 34.5556 1.0449 34.5556 1.22449V6.66122L39.1815 1.07755C39.2482 0.979591 39.3566 0.881632 39.5066 0.783673C39.6733 0.669387 39.89 0.612244 40.1567 0.612244H43.7575C43.9075 0.612244 44.0325 0.669387 44.1325 0.783673C44.2326 0.881632 44.2826 0.995918 44.2826 1.12653C44.2826 1.24082 44.2492 1.33877 44.1826 1.42041L38.2063 8.81633L44.6576 16.9469C44.7243 17.0122 44.7577 17.1102 44.7577 17.2408C44.7577 17.3714 44.6993 17.4939 44.5826 17.6082C44.4826 17.7061 44.3659 17.7551 44.2326 17.7551H40.5068C40.2067 17.7551 39.9733 17.6898 39.8066 17.5592C39.6566 17.4286 39.5566 17.3306 39.5066 17.2653L34.5556 11.2163V17.1429C34.5556 17.3224 34.4972 17.4694 34.3805 17.5837C34.2638 17.698 34.1138 17.7551 33.9304 17.7551H30.7798Z" fill="white"/>
<path d="M47.3359 17.7551C47.1526 17.7551 47.0025 17.698 46.8858 17.5837C46.7692 17.4694 46.7108 17.3224 46.7108 17.1429V1.22449C46.7108 1.0449 46.7692 0.897958 46.8858 0.783673C47.0025 0.669387 47.1526 0.612244 47.3359 0.612244H50.4866C50.67 0.612244 50.82 0.669387 50.9367 0.783673C51.0534 0.897958 51.1117 1.0449 51.1117 1.22449V6.66122L55.7377 1.07755C55.8043 0.979591 55.9127 0.881632 56.0627 0.783673C56.2294 0.669387 56.4461 0.612244 56.7129 0.612244H60.3136C60.4636 0.612244 60.5887 0.669387 60.6887 0.783673C60.7887 0.881632 60.8387 0.995918 60.8387 1.12653C60.8387 1.24082 60.8054 1.33877 60.7387 1.42041L54.7625 8.81633L61.2138 16.9469C61.2805 17.0122 61.3138 17.1102 61.3138 17.2408C61.3138 17.3714 61.2555 17.4939 61.1388 17.6082C61.0388 17.7061 60.9221 17.7551 60.7887 17.7551H57.0629C56.7629 17.7551 56.5295 17.6898 56.3628 17.5592C56.2128 17.4286 56.1127 17.3306 56.0627 17.2653L51.1117 11.2163V17.1429C51.1117 17.3224 51.0534 17.4694 50.9367 17.5837C50.82 17.698 50.67 17.7551 50.4866 17.7551H47.3359Z" fill="white"/>
<path d="M70.4958 18C68.9955 18 67.6785 17.7633 66.545 17.2898C65.4281 16.8 64.5612 16.0571 63.9444 15.0612C63.3276 14.049 63.0192 12.7673 63.0192 11.2163V1.22449C63.0192 1.0449 63.0776 0.897958 63.1943 0.783673C63.311 0.669387 63.461 0.612244 63.6444 0.612244H66.87C67.0534 0.612244 67.2034 0.669387 67.3201 0.783673C67.4368 0.897958 67.4952 1.0449 67.4952 1.22449V11.1918C67.4952 12.2531 67.7536 13.0531 68.2703 13.5918C68.8038 14.1143 69.5456 14.3755 70.4958 14.3755C71.4293 14.3755 72.1545 14.1143 72.6712 13.5918C73.2047 13.0531 73.4714 12.2531 73.4714 11.1918V1.22449C73.4714 1.0449 73.5297 0.897958 73.6464 0.783673C73.7798 0.669387 73.9298 0.612244 74.0965 0.612244H77.3472C77.5139 0.612244 77.6556 0.669387 77.7723 0.783673C77.9057 0.897958 77.9723 1.0449 77.9723 1.22449V11.2163C77.9723 12.7673 77.6639 14.049 77.0471 15.0612C76.4303 16.0571 75.5635 16.8 74.4466 17.2898C73.3297 17.7633 72.0128 18 70.4958 18Z" fill="white"/>
<path d="M81.9134 17.7551C81.73 17.7551 81.58 17.698 81.4633 17.5837C81.3466 17.4694 81.2883 17.3224 81.2883 17.1429V1.22449C81.2883 1.0449 81.3466 0.897958 81.4633 0.783673C81.58 0.669387 81.73 0.612244 81.9134 0.612244H85.2141C85.3808 0.612244 85.5225 0.669387 85.6391 0.783673C85.7725 0.897958 85.8392 1.0449 85.8392 1.22449V14.0571H93.3907C93.5741 14.0571 93.7241 14.1224 93.8408 14.2531C93.9742 14.3673 94.0409 14.5143 94.0409 14.6939V17.1429C94.0409 17.3224 93.9742 17.4694 93.8408 17.5837C93.7241 17.698 93.5741 17.7551 93.3907 17.7551H81.9134Z" fill="white"/>
<path d="M97.9981 17.7551C97.8148 17.7551 97.6647 17.698 97.5481 17.5837C97.4314 17.4694 97.373 17.3224 97.373 17.1429V4.45714H92.9221C92.7387 4.45714 92.5887 4.4 92.472 4.28571C92.3553 4.1551 92.297 4.00816 92.297 3.8449V1.22449C92.297 1.0449 92.3553 0.897958 92.472 0.783673C92.5887 0.669387 92.7387 0.612244 92.9221 0.612244H106.375C106.558 0.612244 106.708 0.669387 106.825 0.783673C106.942 0.897958 107 1.0449 107 1.22449V3.8449C107 4.00816 106.942 4.1551 106.825 4.28571C106.708 4.4 106.558 4.45714 106.375 4.45714H101.924V17.1429C101.924 17.3224 101.866 17.4694 101.749 17.5837C101.632 17.698 101.482 17.7551 101.299 17.7551H97.9981Z" fill="white"/>
<path d="M13.7528 17.6314C13.8274 17.6326 19.5285 17.6332 19.604 17.6332C21.1377 17.6332 22.4713 17.3883 23.6049 16.8985C24.7384 16.4087 25.622 15.674 26.2554 14.6944C26.8889 13.6985 27.239 12.4577 27.3056 10.972C27.339 10.2699 27.3556 9.5679 27.3556 8.86586C27.3556 8.16382 27.339 7.45361 27.3056 6.73525C27.2556 5.26586 26.9056 4.0332 26.2554 3.03729C25.6053 2.02504 24.7051 1.26586 23.5549 0.759735C22.4213 0.253613 21.1044 0.000551288 19.604 0.000551288C19.5286 0.000551288 13.5148 -0.000694295 13.4403 0.000559089L13.4233 3.53737C13.4972 3.53326 19.528 3.52708 19.604 3.52708C20.1875 3.52708 20.7043 3.64137 21.1544 3.86994C21.6045 4.09851 21.9545 4.45769 22.2046 4.94749C22.4713 5.42096 22.6213 6.04137 22.6547 6.80872C22.688 7.49443 22.7047 8.15565 22.7047 8.79239C22.7047 9.42912 22.688 10.1067 22.6547 10.825C22.6213 11.9679 22.3213 12.8006 21.7545 13.323C21.2044 13.8455 20.4876 14.1067 19.604 14.1067C19.5278 14.1067 14.0654 14.1008 13.9916 14.0969L13.7528 17.6314Z" fill="white"/>
<path d="M13.4403 0.000559089C13.3829 -0.000194725 7.7845 0.000552456 7.7266 0.000552456C6.20962 0.000552456 4.88434 0.253614 3.75077 0.759736C2.61721 1.26586 1.72536 2.02504 1.07522 3.03729C0.441759 4.03321 0.0916864 5.26586 0.025006 6.73525C0.00833593 7.45361 0 8.16382 0 8.86586C0 9.5679 0.00833593 10.2699 0.025006 10.972C0.0916864 12.4577 0.441759 13.6985 1.07522 14.6944C1.70869 15.674 2.5922 16.4087 3.72577 16.8985C4.85934 17.3883 6.19295 17.6332 7.7266 17.6332C7.78451 17.6332 14.3206 17.6329 14.378 17.6322L14.1223 14.101C14.0654 14.1033 7.78495 14.1067 7.7266 14.1067C6.84308 14.1067 6.12626 13.8455 5.57615 13.323C5.02604 12.8006 4.72598 11.9679 4.67597 10.825C4.6593 10.1067 4.65096 9.42912 4.65096 8.79239C4.65096 8.15565 4.6593 7.49443 4.67597 6.80872C4.70931 6.04137 4.85934 5.42096 5.12606 4.94749C5.39278 4.4577 5.75119 4.09851 6.20128 3.86994C6.65137 3.64137 7.15981 3.52708 7.7266 3.52708C7.78489 3.52708 13.4403 3.53051 13.4972 3.53279L13.4403 0.000559089Z" fill="white"/>
</svg>
